<svg xmlns="http://www.w3.org/2000/svg" viewBox="0 0 512 512" role="img" aria-label="Oficina Agricola Pro">
  <rect width="512" height="512" rx="112" fill="#0f172a"/>
  <rect x="48" y="48" width="416" height="416" rx="88" fill="#059669"/>
  <path d="M148 281h60l35-76h92l42 76h49l-50-98c-12-24-37-39-64-39h-69c-28 0-53 16-65 41l-30 63Zm27 58c-21 0-38 17-38 38s17 38 38 38 38-17 38-38-17-38-38-38Zm161 0c-21 0-38 17-38 38s17 38 38 38 38-17 38-38-17-38-38-38Z" fill="#ecfeff"/>
  <circle cx="200" cy="377" r="19" fill="#0f172a"/>
  <circle cx="336" cy="377" r="19" fill="#0f172a"/>
</svg>